<svg width="40" height="48" viewBox="0 0 40 48" fill="none" xmlns="http://www.w3.org/2000/svg">
<path d="M12.5699 42.4201C5.48985 38.3601 1.08984 30.7801 1.08984 22.6201V4.80011L20.2398 0.640137L39.3899 4.80011V22.6201C39.3899 30.7801 34.9899 38.3701 27.9099 42.4201L20.2398 46.8201L12.5699 42.4201Z" fill="#DD4C3C" style="fill:#DD4C3C;fill:color(display-p3 0.8667 0.2980 0.2353);fill-opacity:1;"/>
<path d="M14.1701 39.6302C8.09007 36.1502 4.31006 29.6302 4.31006 22.6202V7.40021L20.2401 3.94019L36.1701 7.40021V22.6202C36.1701 29.6302 32.3901 36.1502 26.3101 39.6302L20.2401 43.1102L14.1701 39.6302Z" fill="white" style="fill:white;fill-opacity:1;"/>
<path d="M32.9399 6.7002V17.1102C32.9399 24.1202 29.1599 30.6402 23.0799 34.1202C19.3199 36.2802 14.6999 36.2802 10.9399 34.1202C8.88988 32.9402 7.09988 31.4202 5.62988 29.6502C7.22988 33.8002 10.2099 37.3602 14.1799 39.6302L20.2499 43.1102L26.3199 39.6302C32.3999 36.1502 36.1799 29.6302 36.1799 22.6202V7.40021L32.9399 6.7002Z" fill="#EBEBEB" style="fill:#EBEBEB;fill:color(display-p3 0.9216 0.9216 0.9216);fill-opacity:1;"/>
<path d="M26.7249 14.2299L12.0171 28.9377L14.8738 31.7945L29.5817 17.0866L26.7249 14.2299Z" fill="#69B4FB" style="fill:#69B4FB;fill:color(display-p3 0.4118 0.7059 0.9843);fill-opacity:1;"/>
<path d="M28.1321 15.6369L13.4243 30.3447L14.881 31.8014L29.5888 17.0936L28.1321 15.6369Z" fill="#5799E3" style="fill:#5799E3;fill:color(display-p3 0.3412 0.6000 0.8902);fill-opacity:1;"/>
<path d="M9.97747 32.4213L11.4263 33.8716L14.1925 31.1082L12.7437 29.6579L9.97747 32.4213Z" fill="white" style="fill:white;fill-opacity:1;"/>
<path d="M27.2518 14.7718L29.0195 16.5396L33.2904 12.2686L31.5227 10.5009L27.2518 14.7718Z" fill="white" style="fill:white;fill-opacity:1;"/>
<path d="M32.422 11.3838L28.1519 15.6555L29.0359 16.5392L33.3061 12.2676L32.422 11.3838Z" fill="#EBEBEB" style="fill:#EBEBEB;fill:color(display-p3 0.9216 0.9216 0.9216);fill-opacity:1;"/>
<path d="M20.2399 47.2601C20.1599 47.2601 20.0899 47.2401 20.0199 47.2001L12.3499 42.8001C5.12991 38.6701 0.649902 30.9301 0.649902 22.6101V4.79009C0.649902 4.58009 0.789914 4.4001 0.989914 4.3601L20.1399 0.210137C20.1999 0.200137 20.2599 0.200137 20.3299 0.210137L39.4799 4.3601C39.6799 4.4001 39.8199 4.58009 39.8199 4.79009V22.6101C39.8199 30.9301 35.3399 38.6601 28.1199 42.8001L20.4499 47.2001C20.3799 47.2401 20.3099 47.2601 20.2299 47.2601H20.2399ZM1.52991 5.15014V22.6101C1.52991 30.6101 5.83992 38.0601 12.7899 42.0301L20.2499 46.3001L27.7099 42.0301C34.6599 38.0501 38.9699 30.6101 38.9699 22.6101V5.15014L20.2599 1.09014L1.54991 5.15014H1.52991Z" fill="#232323" style="fill:#232323;fill:color(display-p3 0.1373 0.1373 0.1373);fill-opacity:1;"/>
<path d="M20.2401 43.5402C20.1601 43.5402 20.0901 43.5202 20.0201 43.4802L13.9501 40.0002C7.73013 36.4402 3.87012 29.7802 3.87012 22.6102V7.39019C3.87012 7.18019 4.01012 7.0102 4.22012 6.9602L20.1501 3.50018C20.2101 3.49018 20.2701 3.49018 20.3401 3.50018L36.2701 6.9602C36.4701 7.0002 36.6201 7.18019 36.6201 7.39019V22.6102C36.6201 29.7702 32.7601 36.4402 26.5401 40.0002L20.4701 43.4802C20.4001 43.5202 20.3301 43.5402 20.2501 43.5402H20.2401ZM4.75012 7.75018V22.6202C4.75012 29.4702 8.44014 35.8402 14.3901 39.2502L20.2401 42.6002L26.0901 39.2502C32.0401 35.8402 35.7301 29.4702 35.7301 22.6202V7.75018L20.2401 4.39019L4.75012 7.75018Z" fill="#232323" style="fill:#232323;fill:color(display-p3 0.1373 0.1373 0.1373);fill-opacity:1;"/>
<path d="M6.44 16.1001C6.2 16.1001 6 15.9001 6 15.6601V9.12014C6 8.91014 6.14001 8.73014 6.35001 8.69014L10.39 7.81014C10.63 7.76014 10.86 7.91016 10.91 8.15016C10.96 8.39016 10.81 8.62012 10.57 8.67012L6.87 9.47011V15.6601C6.87 15.9001 6.66999 16.1001 6.42999 16.1001H6.44Z" fill="#232323" style="fill:#232323;fill:color(display-p3 0.1373 0.1373 0.1373);fill-opacity:1;"/>
<path d="M23.02 39.4999C22.87 39.4999 22.7201 39.42 22.6401 39.28C22.5201 39.07 22.59 38.7999 22.8 38.6799L24.4101 37.7599C24.6201 37.6399 24.8901 37.7099 25.0101 37.9199C25.1301 38.1299 25.0601 38.4 24.8501 38.52L23.24 39.4399C23.17 39.4799 23.1 39.4999 23.02 39.4999Z" fill="#232323" style="fill:#232323;fill:color(display-p3 0.1373 0.1373 0.1373);fill-opacity:1;"/>
<path d="M26.6701 37.31C26.5301 37.31 26.4 37.25 26.31 37.13C26.17 36.93 26.2201 36.66 26.4101 36.52C28.5501 35 30.34 32.96 31.59 30.64C31.7 30.43 31.97 30.34 32.18 30.46C32.39 30.57 32.47 30.84 32.36 31.05C31.05 33.5 29.1701 35.64 26.9201 37.24C26.8401 37.3 26.7501 37.32 26.6701 37.32V37.31Z" fill="#232323" style="fill:#232323;fill:color(display-p3 0.1373 0.1373 0.1373);fill-opacity:1;"/>
<path d="M20.2398 8.68024C19.9998 8.68024 19.7998 8.48023 19.7998 8.24023V3.95026C19.7998 3.71026 19.9998 3.51025 20.2398 3.51025C20.4798 3.51025 20.6798 3.71026 20.6798 3.95026V8.24023C20.6798 8.48023 20.4798 8.68024 20.2398 8.68024Z" fill="#232323" style="fill:#232323;fill:color(display-p3 0.1373 0.1373 0.1373);fill-opacity:1;"/>
<path d="M20.2398 43.5402C19.9998 43.5402 19.7998 43.3402 19.7998 43.1002V38.1302C19.7998 37.8902 19.9998 37.6902 20.2398 37.6902C20.4798 37.6902 20.6798 37.8902 20.6798 38.1302V43.1002C20.6798 43.3402 20.4798 43.5402 20.2398 43.5402Z" fill="#232323" style="fill:#232323;fill:color(display-p3 0.1373 0.1373 0.1373);fill-opacity:1;"/>
<path d="M14.8698 32.2302C14.7598 32.2302 14.6498 32.1902 14.5598 32.1002L11.6998 29.2402C11.6198 29.1602 11.5698 29.0502 11.5698 28.9302C11.5698 28.8102 11.6098 28.7002 11.6998 28.6202L26.3998 13.9102C26.4798 13.8302 26.5898 13.7803 26.7098 13.7803C26.8298 13.7803 26.9398 13.8302 27.0198 13.9102L29.8798 16.7703C30.0498 16.9403 30.0498 17.2203 29.8798 17.3903L15.1798 32.0903C15.0898 32.1803 14.9798 32.2202 14.8698 32.2202V32.2302ZM12.6398 28.9402L14.8798 31.1802L28.9698 17.1002L26.7298 14.8602L12.6398 28.9402Z" fill="#232323" style="fill:#232323;fill:color(display-p3 0.1373 0.1373 0.1373);fill-opacity:1;"/>
<path d="M11.3997 34.2902C11.2897 34.2902 11.1798 34.2502 11.0898 34.1602L9.63977 32.7102C9.55977 32.6302 9.50977 32.5202 9.50977 32.4002C9.50977 32.2802 9.55977 32.1702 9.63977 32.0902L12.4098 29.3202C12.4898 29.2402 12.5998 29.1902 12.7198 29.1902C12.8398 29.1902 12.9498 29.2402 13.0298 29.3202L14.4798 30.7702C14.6498 30.9402 14.6498 31.2202 14.4798 31.3902L11.7097 34.1602C11.6297 34.2502 11.5097 34.2902 11.3997 34.2902ZM10.5797 32.4102L11.4098 33.2402L13.5598 31.1002L12.7298 30.2702L10.5797 32.4102Z" fill="#232323" style="fill:#232323;fill:color(display-p3 0.1373 0.1373 0.1373);fill-opacity:1;"/>
<path d="M3.47998 40.7801C3.36998 40.7801 3.25998 40.7401 3.16998 40.6501C2.99998 40.4801 2.99998 40.2001 3.16998 40.0301L10.38 32.8201C10.55 32.6501 10.83 32.6501 11 32.8201C11.17 32.9901 11.17 33.2701 11 33.4401L3.78998 40.6501C3.69998 40.7401 3.58998 40.7801 3.47998 40.7801Z" fill="#232323" style="fill:#232323;fill:color(display-p3 0.1373 0.1373 0.1373);fill-opacity:1;"/>
<path d="M30.78 18.7303C30.67 18.7303 30.55 18.6903 30.47 18.6003L25.21 13.3403C25.04 13.1703 25.04 12.8903 25.21 12.7203C25.38 12.5503 25.66 12.5503 25.83 12.7203L31.09 17.9803C31.26 18.1503 31.26 18.4303 31.09 18.6003C31 18.6803 30.89 18.7303 30.78 18.7303Z" fill="#232323" style="fill:#232323;fill:color(display-p3 0.1373 0.1373 0.1373);fill-opacity:1;"/>
<path d="M29.04 16.9803C28.92 16.9803 28.81 16.9303 28.73 16.8503L26.96 15.0803C26.79 14.9103 26.79 14.6303 26.96 14.4603L31.23 10.1903C31.4 10.0303 31.69 10.0303 31.85 10.1903L33.62 11.9603C33.79 12.1303 33.79 12.4103 33.62 12.5803L29.35 16.8503C29.27 16.9303 29.16 16.9803 29.04 16.9803ZM27.89 14.7803L29.04 15.9303L32.69 12.2803L31.54 11.1303L27.89 14.7803Z" fill="#232323" style="fill:#232323;fill:color(display-p3 0.1373 0.1373 0.1373);fill-opacity:1;"/>
<path d="M34.39 13.7902C34.28 13.7902 34.17 13.7502 34.08 13.6602L30.15 9.73016C29.98 9.56016 29.98 9.28017 30.15 9.11017C30.32 8.94017 30.6 8.94017 30.77 9.11017L34.7 13.0402C34.87 13.2102 34.87 13.4902 34.7 13.6602C34.61 13.7502 34.5 13.7902 34.39 13.7902Z" fill="#232323" style="fill:#232323;fill:color(display-p3 0.1373 0.1373 0.1373);fill-opacity:1;"/>
<path d="M17.4401 29.6701C17.3301 29.6701 17.2201 29.6301 17.1301 29.5401L16.2701 28.6701C16.1001 28.5001 16.1001 28.2201 16.2701 28.0501C16.4401 27.8801 16.7201 27.8801 16.8901 28.0501L17.7601 28.9201C17.9301 29.0901 17.9301 29.3701 17.7601 29.5401C17.6701 29.6201 17.5601 29.6701 17.4501 29.6701H17.4401Z" fill="#232323" style="fill:#232323;fill:color(display-p3 0.1373 0.1373 0.1373);fill-opacity:1;"/>
<path d="M20.0101 27.1002C19.9001 27.1002 19.7801 27.0602 19.7001 26.9702L18.2701 25.5402C18.1001 25.3702 18.1001 25.0902 18.2701 24.9202C18.4401 24.7502 18.7201 24.7502 18.8901 24.9202L20.3201 26.3502C20.4901 26.5202 20.4901 26.8002 20.3201 26.9702C20.2401 27.0602 20.1201 27.1002 20.0101 27.1002Z" fill="#232323" style="fill:#232323;fill:color(display-p3 0.1373 0.1373 0.1373);fill-opacity:1;"/>
<path d="M22.5702 24.5402C22.4602 24.5402 22.3502 24.5002 22.2602 24.4102L21.3902 23.5402C21.2202 23.3702 21.2202 23.0902 21.3902 22.9202C21.5602 22.7502 21.8402 22.7502 22.0102 22.9202L22.8802 23.7902C23.0502 23.9602 23.0502 24.2402 22.8802 24.4102C22.7902 24.5002 22.6802 24.5402 22.5702 24.5402Z" fill="#232323" style="fill:#232323;fill:color(display-p3 0.1373 0.1373 0.1373);fill-opacity:1;"/>
<path d="M25.1302 21.9701C25.0202 21.9701 24.9102 21.9301 24.8202 21.8401L23.3902 20.4101C23.2202 20.2401 23.2202 19.9601 23.3902 19.7901C23.5602 19.6201 23.8402 19.6201 24.0102 19.7901L25.4402 21.2201C25.6102 21.3901 25.6102 21.6701 25.4402 21.8401C25.3502 21.9301 25.2402 21.9701 25.1302 21.9701Z" fill="#232323" style="fill:#232323;fill:color(display-p3 0.1373 0.1373 0.1373);fill-opacity:1;"/>
</svg>
